<?xml version="1.0" encoding="utf-8"?>
<!-- Generator: Adobe Illustrator 16.0.0, SVG Export Plug-In . SVG Version: 6.00 Build 0)  -->
<!DOCTYPE svg PUBLIC "-//W3C//DTD SVG 1.1//EN" "http://www.w3.org/Graphics/SVG/1.1/DTD/svg11.dtd">
<svg version="1.1" id="Layer_4" xmlns="http://www.w3.org/2000/svg" xmlns:xlink="http://www.w3.org/1999/xlink" x="0px" y="0px"
	 width="1237px" height="849px" viewBox="0 0 1237 849" enable-background="new 0 0 1237 849" xml:space="preserve">
<g>
	<polyline fill="none" stroke="#000000" stroke-miterlimit="10" points="251.7,440.678 253.404,441.939 255.107,443.2 
		256.812,444.461 258.515,445.723 260.219,446.984 261.923,448.245 263.626,449.506 265.33,450.768 267.014,452.093 
		268.697,453.418 270.381,454.743 272.065,456.068 273.749,457.394 275.433,458.719 277.116,460.045 278.8,461.37 280.431,462.645 
		282.062,463.92 283.694,465.194 285.325,466.469 286.957,467.744 288.588,469.019 290.22,470.293 291.851,471.568 293.511,472.87 
		295.171,474.172 296.831,475.474 298.49,476.775 300.15,478.077 301.81,479.379 303.469,480.681 305.129,481.982 306.668,483.156 
		308.207,484.33 309.746,485.504 311.286,486.678 312.825,487.852 314.364,489.025 315.903,490.199 317.442,491.373 
		319.269,492.811 321.094,494.248 322.92,495.686 324.746,497.123 326.572,498.561 328.398,499.998 330.224,501.436 332.05,502.872 
		333.654,504.127 335.258,505.383 336.862,506.639 338.466,507.895 340.07,509.15 341.674,510.406 343.278,511.662 344.882,512.918 
		346.932,510.258 348.981,507.599 351.031,504.939 353.082,502.279 355.132,499.619 357.182,496.959 359.231,494.299 
		361.281,491.64 359.618,490.33 357.955,489.021 356.292,487.712 354.628,486.402 352.965,485.093 351.302,483.783 349.639,482.475 
		347.976,481.165 350.048,478.498 352.12,475.83 354.192,473.162 356.264,470.494 358.336,467.826 360.408,465.158 362.48,462.49 
		364.553,459.823 366.614,457.174 368.675,454.523 370.736,451.874 372.797,449.225 374.858,446.575 376.92,443.926 
		378.981,441.275 381.042,438.626 383.102,435.971 385.162,433.314 387.222,430.658 389.282,428.003 391.342,425.348 
		393.401,422.691 395.461,420.036 397.521,417.38 395.847,416.077 394.172,414.775 392.497,413.473 390.822,412.17 389.146,410.867 
		387.472,409.565 385.797,408.263 384.122,406.96 386.193,404.269 388.265,401.578 390.336,398.887 392.407,396.195 
		394.479,393.504 396.55,390.812 398.621,388.121 400.692,385.43 402.737,382.796 404.782,380.163 406.826,377.529 408.871,374.895 
		410.916,372.261 412.96,369.627 415.005,366.994 417.05,364.36 418.832,362.062 420.614,359.763 422.396,357.464 424.178,355.165 
		425.96,352.866 427.742,350.567 429.524,348.269 431.307,345.97 429.636,344.717 427.965,343.465 426.294,342.212 424.623,340.96 
		422.951,339.708 421.28,338.455 419.609,337.203 417.938,335.95 416.277,334.719 414.616,333.488 412.955,332.257 411.294,331.025 
		409.633,329.794 407.972,328.562 406.311,327.331 404.649,326.1 403.385,325.168 402.12,324.235 400.854,323.303 399.59,322.37 
		398.325,321.438 397.06,320.505 395.795,319.572 394.53,318.64 	"/>
</g>
</svg>
