<?xml version="1.0" encoding="utf-8"?>
<!-- Generator: Adobe Illustrator 16.0.0, SVG Export Plug-In . SVG Version: 6.00 Build 0)  -->
<!DOCTYPE svg PUBLIC "-//W3C//DTD SVG 1.1//EN" "http://www.w3.org/Graphics/SVG/1.1/DTD/svg11.dtd">
<svg version="1.1" id="Layer_4" xmlns="http://www.w3.org/2000/svg" xmlns:xlink="http://www.w3.org/1999/xlink" x="0px" y="0px"
	 width="1237px" height="849px" viewBox="0 0 1237 849" enable-background="new 0 0 1237 849" xml:space="preserve">
<g>
	<polyline fill="none" stroke="#000000" stroke-miterlimit="10" points="335.271,674.727 337.028,675.775 338.785,676.825 
		340.543,677.875 342.3,678.924 344.058,679.973 345.815,681.021 347.573,682.07 349.33,683.12 351.665,684.439 354,685.758 
		356.336,687.076 358.671,688.395 361.006,689.713 363.341,691.032 365.677,692.352 368.012,693.67 370.592,695.29 373.172,696.91 
		375.752,698.53 378.332,700.15 380.911,701.771 383.491,703.391 386.071,705.01 388.651,706.63 391.884,708.553 395.116,710.477 
		398.349,712.4 401.581,714.324 404.812,716.248 408.045,718.172 411.277,720.096 414.51,722.02 416.215,723.016 417.92,724.012 
		419.625,725.008 421.331,726.004 423.036,727 424.741,727.996 426.446,728.992 428.151,729.988 427.534,730.789 426.916,731.589 
		426.298,732.389 425.681,733.189 425.063,733.989 424.445,734.789 423.828,735.59 423.21,736.39 428.835,740.719 434.46,745.047 
		440.085,749.376 445.71,753.705 451.335,758.033 456.96,762.362 462.585,766.691 468.21,771.02 472.099,764.025 475.987,757.031 
		479.876,750.037 483.765,743.044 487.654,736.051 491.543,729.057 495.432,722.062 499.32,715.068 498.113,713.9 496.905,712.733 
		495.698,711.566 494.49,710.398 493.283,709.23 492.075,708.063 490.868,706.896 489.66,705.729 487.958,704.019 486.256,702.309 
		484.554,700.599 482.852,698.889 481.149,697.179 479.447,695.469 477.745,693.758 476.042,692.048 474.205,690.123 
		472.367,688.199 470.529,686.275 468.691,684.352 466.854,682.428 465.016,680.504 463.178,678.58 461.34,676.656 462.685,673.754 
		464.029,670.853 465.373,667.951 466.718,665.049 468.062,662.146 469.407,659.245 470.751,656.344 472.096,653.441 
		473.334,650.887 474.572,648.331 475.81,645.775 477.048,643.221 478.286,640.666 479.524,638.11 480.762,635.555 482,633 
		483.981,629.674 485.962,626.347 487.943,623.02 489.925,619.693 491.906,616.367 493.887,613.041 495.868,609.715 497.85,606.388 
		499.301,604.336 500.752,602.285 502.203,600.234 503.655,598.184 505.106,596.133 506.558,594.082 508.009,592.031 509.46,589.98 
		509.852,587.833 510.243,585.686 510.634,583.538 511.025,581.391 511.417,579.243 511.808,577.096 512.199,574.947 512.591,572.8 
		512.713,569.508 512.835,566.217 512.958,562.926 513.08,559.634 513.203,556.342 513.325,553.051 513.447,549.76 513.57,546.468 
		513.786,543.049 514.002,539.631 514.218,536.213 514.434,532.794 514.649,529.375 514.866,525.957 515.082,522.539 
		515.298,519.12 515.374,516.998 515.449,514.877 515.524,512.756 515.6,510.635 515.676,508.514 515.751,506.393 515.827,504.271 
		515.902,502.15 516.107,497.857 516.312,493.564 516.516,489.271 516.72,484.979 516.925,480.686 517.129,476.393 517.333,472.1 
		517.538,467.808 517.871,464.807 518.204,461.805 518.536,458.804 518.869,455.803 519.202,452.802 519.535,449.801 
		519.867,446.799 520.2,443.798 520.549,441.061 520.897,438.322 521.246,435.584 521.595,432.846 521.943,430.107 522.292,427.369 
		522.641,424.631 522.989,421.894 	"/>
</g>
</svg>
