<?xml version="1.0" encoding="utf-8"?>
<!-- Generator: Adobe Illustrator 16.0.0, SVG Export Plug-In . SVG Version: 6.00 Build 0)  -->
<!DOCTYPE svg PUBLIC "-//W3C//DTD SVG 1.1//EN" "http://www.w3.org/Graphics/SVG/1.1/DTD/svg11.dtd">
<svg version="1.1" id="Layer_4" xmlns="http://www.w3.org/2000/svg" xmlns:xlink="http://www.w3.org/1999/xlink" x="0px" y="0px"
	 width="1237px" height="849px" viewBox="0 0 1237 849" enable-background="new 0 0 1237 849" xml:space="preserve">
<g>
	<polyline fill="none" stroke="#000000" stroke-miterlimit="10" points="336.482,642.486 337.448,640.953 338.414,639.42 
		339.379,637.887 340.345,636.354 341.311,634.822 342.276,633.289 343.241,631.756 344.207,630.223 345.03,628.916 
		345.853,627.609 346.676,626.303 347.499,624.996 348.321,623.689 349.145,622.383 349.967,621.076 350.79,619.77 351.851,618.363 
		352.912,616.958 353.974,615.553 355.035,614.146 356.096,612.74 357.157,611.335 358.218,609.93 359.279,608.523 360.304,607.166 
		361.328,605.81 362.352,604.453 363.376,603.096 364.4,601.738 365.424,600.382 366.448,599.025 367.473,597.668 368.456,596.365 
		369.439,595.062 370.423,593.76 371.406,592.456 372.39,591.152 373.373,589.85 374.356,588.547 375.34,587.244 376.621,585.942 
		377.903,584.641 379.185,583.34 380.466,582.038 381.747,580.736 383.028,579.436 384.31,578.134 385.591,576.832 386.971,575.432 
		388.35,574.03 389.729,572.629 391.107,571.229 392.486,569.828 393.865,568.427 395.244,567.025 396.624,565.625 397.756,564.475 
		398.888,563.325 400.02,562.176 401.151,561.025 402.283,559.876 403.415,558.727 404.547,557.576 405.679,556.427 
		406.717,555.371 407.756,554.316 408.794,553.262 409.833,552.207 410.872,551.152 411.91,550.098 412.948,549.043 
		413.987,547.987 414.841,547.119 415.695,546.252 416.549,545.385 417.403,544.517 418.258,543.648 419.112,542.781 
		419.966,541.914 420.82,541.046 421.925,539.303 423.029,537.559 424.134,535.815 425.239,534.072 426.344,532.329 
		427.448,530.586 428.553,528.843 429.657,527.1 430.5,525.771 431.342,524.441 432.184,523.112 433.026,521.783 433.868,520.454 
		434.71,519.125 435.552,517.797 436.395,516.468 434.931,515.449 433.467,514.432 432.003,513.413 430.539,512.395 
		429.075,511.376 427.611,510.357 426.147,509.339 424.684,508.32 425.785,506.842 426.886,505.363 427.986,503.885 
		429.087,502.406 430.188,500.928 431.288,499.449 432.389,497.971 433.49,496.492 434.404,495.264 435.319,494.035 
		436.234,492.807 437.148,491.578 438.063,490.35 438.978,489.121 439.892,487.893 440.807,486.664 441.757,485.388 
		442.708,484.111 443.658,482.835 444.608,481.559 445.559,480.282 446.509,479.006 447.46,477.729 448.41,476.452 446.666,475.598 
		444.922,474.744 443.179,473.891 441.435,473.036 439.69,472.182 437.947,471.328 436.203,470.475 434.459,469.62 433.486,468.295 
		432.514,466.971 431.542,465.646 430.569,464.32 429.597,462.995 428.625,461.67 427.652,460.345 426.68,459.02 427.784,458.094 
		428.888,457.168 429.992,456.242 431.096,455.315 432.2,454.389 433.305,453.463 434.409,452.537 435.513,451.611 436.248,450.994 
		436.984,450.377 437.72,449.76 438.455,449.144 439.19,448.527 439.926,447.91 440.662,447.293 441.397,446.676 442.274,445.94 
		443.15,445.205 444.027,444.47 444.904,443.734 445.78,442.999 446.657,442.264 447.534,441.529 448.41,440.794 	"/>
</g>
</svg>
