<?xml version="1.0" standalone="no"?>
<!DOCTYPE svg PUBLIC "-//W3C//DTD SVG 20010904//EN"
 "http://www.w3.org/TR/2001/REC-SVG-20010904/DTD/svg10.dtd">
<svg version="1.0" xmlns="http://www.w3.org/2000/svg"
 width="3756.000000pt" height="3010.000000pt" viewBox="0 0 3756.000000 3010.000000"
 preserveAspectRatio="xMidYMid meet">
<metadata>
Created by potrace 1.11, written by Peter Selinger 2001-2013
</metadata>
<g transform="translate(0.000000,3010.000000) scale(0.100000,-0.100000)"
fill="#000000" stroke="none">
<path d="M23470 18245 c-1638 -505 -2244 -696 -2242 -706 2 -8 80 -207 174
-442 94 -235 168 -430 165 -433 -6 -7 -610 -104 -615 -99 -2 1 -71 193 -154
426 -83 233 -152 425 -153 427 -2 2 -327 -180 -723 -404 l-721 -408 15 -27 14
-27 687 388 c378 214 691 386 694 382 4 -4 72 -191 152 -416 80 -224 147 -409
149 -411 2 -1 152 22 333 51 182 30 338 52 349 50 26 -6 66 14 66 33 0 9 -6
26 -14 37 -31 43 -344 845 -333 850 98 37 4363 1342 4368 1337 4 -5 181 -686
394 -1515 l388 -1506 -446 -1664 c-245 -914 -447 -1671 -449 -1681 -2 -13 676
-496 2892 -2057 l2895 -2040 17 22 c13 18 14 26 5 35 -7 6 -1294 914 -2862
2018 -1567 1104 -2857 2015 -2866 2024 -14 15 22 157 431 1679 l446 1664 -208
806 c-114 444 -294 1143 -400 1555 -106 411 -195 747 -198 746 -3 0 -1015
-312 -2250 -694z"/>
</g>
</svg>
